<svg id="Capa_1" enable-background="new 0 0 512 512" height="512" viewBox="0 0 512 512" width="512" xmlns="http://www.w3.org/2000/svg" fill="#fd0054"><g><path d="m214 180.51 35.85-21.51-35.85-21.51z"/><path d="m446 45c0-24.81-20.19-45-45-45h-356c-24.81 0-45 20.19-45 45v276c0 24.81 20.19 45 45 45h167c0-34.389-.372-37.431 1.13-46h-150.13c-8.28 0-15-6.72-15-15s6.72-15 15-15h18v-16c0-8.28 6.72-15 15-15s15 6.72 15 15v16h114.58c13.58-19.34 36.05-32 61.42-32h52c10.02 0 19.29 3.3 26.78 8.87l15.44-1.44c23.85-2.22 45.93-10.76 64.78-24.92zm-351 89h-32c-8.28 0-15-6.72-15-15s6.72-15 15-15h32c8.28 0 15 6.72 15 15s-6.72 15-15 15zm0-56h-32c-8.28 0-15-6.72-15-15s6.72-15 15-15h32c8.28 0 15 6.72 15 15s-6.72 15-15 15zm191.72 93.86-80 48c-9.91 5.955-22.72-1.161-22.72-12.86v-96c0-11.635 12.724-18.849 22.72-12.86l80 48c9.694 5.812 9.697 19.906 0 25.72zm98.28-93.86h-32c-8.28 0-15-6.72-15-15s6.72-15 15-15h32c8.28 0 15 6.72 15 15s-6.72 15-15 15z"/><path d="m340.23 460c-.23 0-54.035.026-56.01-.06l9.135 40.37c1.547 6.836 7.621 11.69 14.63 11.69h25.24c9.62 0 16.754-8.928 14.63-18.311z"/><path d="m502.74 241.14c-5.61-2.32-12.06-1.04-16.35 3.25l-5.08 5.09c-26.44 26.44-60.55 42.4-97.31 45.82v127.4c36.76 3.42 70.87 19.38 97.3 45.82l5.09 5.09c4.291 4.291 10.755 5.566 16.35 3.25 5.6-2.32 9.26-7.79 9.26-13.86v-208c0-6.07-3.66-11.54-9.26-13.86z"/><path d="m339 288h-52c-24.853 0-45 20.147-45 45v52c0 24.853 20.147 45 45 45h52c8.284 0 15-6.716 15-15v-112c0-8.284-6.716-15-15-15z"/></g></svg>