<svg id="Layer_5" enable-background="new 0 0 64 64" height="512" viewBox="0 0 64 64" width="512" xmlns="http://www.w3.org/2000/svg" ><path d="m5 35h2v2h-2z"/><path d="m9 35h2v2h-2z"/><path d="m13 35h2v2h-2z"/><path d="m63 13h-24.056c.03-.332.056-.666.056-1 0-6.065-4.935-11-11-11-3.739 0-7.157 1.891-9.181 4.976-1.145-.621-2.445-.976-3.819-.976-4.411 0-8 3.589-8 8v.071c-3.388.487-6 3.408-6 6.929 0 3.859 3.141 7 7 7h15v4h-22v32h40v-18h22zm-2 8h-36v-6h36zm-53 4c-2.757 0-5-2.243-5-5s2.243-5 4.966-5.001l1.267.005-.163-1.141c-.048-.336-.07-.61-.07-.863 0-3.309 2.691-6 6-6 2.626 0 4.925 1.681 5.72 4.181l1.906-.605c-.43-1.352-1.201-2.511-2.185-3.427 1.648-2.57 4.469-4.149 7.559-4.149 4.963 0 9 4.037 9 9 0 .334-.019.669-.056 1h-13.944v12zm31 8v6h-36v-6zm-36 28v-20h36v20zm38-18v-12h-16v-8h36v20z"/><path d="m27 17h2v2h-2z"/><path d="m31 17h2v2h-2z"/><path d="m35 17h2v2h-2z"/><path d="m16.567 51.494c.884-.902 1.433-2.134 1.433-3.494 0-2.757-2.243-5-5-5s-5 2.243-5 5c0 1.36.549 2.592 1.433 3.494-2.592 1.027-4.433 3.553-4.433 6.506v1h16v-1c0-2.953-1.841-5.479-4.433-6.506zm-3.567-6.494c1.654 0 3 1.346 3 3s-1.346 3-3 3-3-1.346-3-3 1.346-3 3-3zm-5.899 12c.465-2.279 2.484-4 4.899-4h2c2.415 0 4.435 1.721 4.899 4z"/><path d="m54.567 33.494c.884-.902 1.433-2.134 1.433-3.494 0-2.757-2.243-5-5-5s-5 2.243-5 5c0 1.36.549 2.592 1.433 3.494-2.592 1.027-4.433 3.553-4.433 6.506v1h16v-1c0-2.953-1.841-5.479-4.433-6.506zm-3.567-6.494c1.654 0 3 1.346 3 3s-1.346 3-3 3-3-1.346-3-3 1.346-3 3-3zm-5.899 12c.465-2.279 2.484-4 4.899-4h2c2.415 0 4.435 1.721 4.899 4z"/><path d="m27 25h16v2h-16z"/><path d="m23 43h14v2h-14z"/><path d="m23 47h14v2h-14z"/><path d="m23 51h14v2h-14z"/><path d="m35 55h2v2h-2z"/><path d="m31 55h2v2h-2z"/><path d="m27 55h2v2h-2z"/></svg>