<svg id="Layer_1" enable-background="new 0 0 511.75 511.75" height="512" viewBox="0 0 511.75 511.75" width="512" xmlns="http://www.w3.org/2000/svg" ><g><path d="m63.414 0v105.866h-24.193v30h24.192v60.006h-24.192v30h24.192v60.006h-24.192v30h24.192v60.006h-24.192v30h24.192v105.866h409.115v-511.75zm379.115 481.75h-349.115v-75.866h22.808v-30h-22.808v-60.006h22.808v-30h-22.808v-60.006h22.808v-30h-22.808v-60.006h22.808v-30h-22.808v-75.866h349.115z"/><path d="m174.281 321.282c3.776-3.777 8.799-5.858 14.141-5.858 5.343 0 10.365 2.081 14.143 5.858 7.798 7.798 7.798 20.486 0 28.284l-12.492 12.492 21.213 21.213 12.492-12.492c15.801-15.801 18.792-39.632 8.979-58.476l91.632-91.632c7.056 3.691 14.941 5.656 23.132 5.656 13.356 0 25.912-5.201 35.355-14.646l12.492-12.492-21.213-21.213-12.493 12.492c-3.777 3.777-8.799 5.858-14.142 5.858-5.342 0-10.364-2.081-14.142-5.859-3.777-3.776-5.858-8.799-5.858-14.141 0-5.343 2.081-10.364 5.859-14.143l12.491-12.492-21.215-21.213-12.49 12.491c-9.444 9.444-14.646 22-14.646 35.356 0 8.19 1.964 16.076 5.656 23.132l-91.622 91.622c-7.056-3.691-14.942-5.656-23.133-5.656-13.355 0-25.911 5.201-35.354 14.646l-12.492 12.492 21.213 21.213z"/></g></svg>