<?xml version="1.0" encoding="iso-8859-1"?>
<!-- Generator: Adobe Illustrator 19.0.0, SVG Export Plug-In . SVG Version: 6.00 Build 0)  -->
<svg version="1.1" id="Capa_1" xmlns="http://www.w3.org/2000/svg" xmlns:xlink="http://www.w3.org/1999/xlink" x="0px" y="0px"
	 viewBox="0 0 512 512" style="enable-background:new 0 0 512 512;" xml:space="preserve" >
<g>
	<g>
		<path d="M446.168,54.799L261.16,0.725l-0.381-0.106c-3.125-0.825-6.429-0.825-9.555-0.001l-0.192,0.051L65.834,54.798
			C52.172,58.51,42.65,70.946,42.65,85.121v263.777c0,34.633,19.117,65.859,49.921,81.614l121.144,71.205l0.842,0.459
			C227.532,508.725,241.765,512,256,512c14.233,0,28.468-3.274,41.442-9.823l0.429-0.216l121.558-71.448
			c30.805-15.754,49.922-46.98,49.922-81.614V85.121C469.35,70.946,459.83,58.512,446.168,54.799z M439.349,348.898L439.349,348.898
			c0,23.413-12.983,44.509-33.885,55.058l-0.429,0.216l-121.517,71.424c-17.268,8.557-37.772,8.556-55.04,0l-121.103-71.181
			l-0.843-0.459C85.633,393.407,72.65,372.31,72.65,348.898V85.121c0-0.645,0.436-1.209,1.059-1.374l182.29-53.275l181.908,53.169
			l0.382,0.106c0.624,0.165,1.06,0.729,1.06,1.374V348.898z"/>
	</g>
</g>
<g>
	<g>
		<path d="M256,117.096c-70.86,0-128.509,57.649-128.509,128.509S185.14,374.114,256,374.114s128.509-57.649,128.509-128.509
			S326.86,117.096,256,117.096z M256,344.113c-54.318,0-98.508-44.19-98.508-98.508c0-54.318,44.19-98.508,98.508-98.508
			s98.508,44.19,98.508,98.508C354.508,299.923,310.318,344.113,256,344.113z"/>
	</g>
</g>
<g>
	<g>
		<path d="M311.018,207.076c-5.625-6.08-15.116-6.448-21.197-0.822l-50.663,46.881l-16.56-16.56c-5.857-5.857-15.355-5.858-21.214,0
			c-5.857,5.858-5.857,15.355,0,21.214l26.764,26.764c0.128,0.128,0.267,0.238,0.398,0.36c0.184,0.171,0.366,0.343,0.556,0.503
			c0.207,0.175,0.421,0.337,0.636,0.498c0.196,0.148,0.39,0.297,0.591,0.434c0.227,0.154,0.459,0.293,0.692,0.434
			c0.2,0.12,0.397,0.245,0.601,0.355c0.25,0.135,0.505,0.253,0.761,0.373c0.197,0.092,0.39,0.191,0.59,0.274
			c0.276,0.115,0.556,0.211,0.837,0.308c0.188,0.066,0.373,0.139,0.564,0.197c0.304,0.092,0.611,0.163,0.919,0.236
			c0.174,0.041,0.345,0.092,0.52,0.127c0.345,0.069,0.693,0.114,1.042,0.158c0.141,0.018,0.281,0.047,0.423,0.061
			c0.491,0.048,0.983,0.074,1.476,0.074c0.001,0,0.001,0,0.001,0c0.001,0,0.002,0,0.002,0c0.468,0,0.937-0.023,1.404-0.067
			c0.136-0.013,0.271-0.039,0.407-0.056c0.33-0.04,0.659-0.08,0.987-0.142c0.172-0.033,0.341-0.08,0.511-0.118
			c0.288-0.065,0.576-0.128,0.861-0.21c0.189-0.055,0.374-0.124,0.561-0.186c0.261-0.087,0.522-0.171,0.779-0.273
			c0.198-0.078,0.391-0.17,0.587-0.257c0.239-0.107,0.478-0.211,0.713-0.331c0.202-0.103,0.398-0.219,0.596-0.331
			c0.22-0.125,0.44-0.249,0.655-0.387c0.199-0.127,0.392-0.266,0.586-0.403c0.206-0.146,0.411-0.292,0.611-0.449
			c0.187-0.147,0.368-0.304,0.549-0.461c0.125-0.108,0.256-0.205,0.379-0.318l61.253-56.682
			C316.277,222.647,316.644,213.156,311.018,207.076z"/>
	</g>
</g>
<g>
</g>
<g>
</g>
<g>
</g>
<g>
</g>
<g>
</g>
<g>
</g>
<g>
</g>
<g>
</g>
<g>
</g>
<g>
</g>
<g>
</g>
<g>
</g>
<g>
</g>
<g>
</g>
<g>
</g>
</svg>
