<svg xmlns="http://www.w3.org/2000/svg" xmlns:xlink="http://www.w3.org/1999/xlink" version="1.1" id="Capa_1" x="0px" y="0px" width="612.017px" height="612.017px" viewBox="0 0 612.017 612.017" style="enable-background:new 0 0 612.017 612.017;fill: #fff;" xml:space="preserve">
<g>
	<g id="_x35__12_">
		<g>
			<path d="M0,224.365v163.287c0,22.554,18.268,40.821,40.822,40.821h61.232v-244.93H40.822C18.268,183.543,0,201.811,0,224.365z      M285.752,61.078l-142.876,95.258v299.366l142.876,95.237c22.554,0,40.822-18.288,40.822-40.822V101.899     C326.574,79.366,308.307,61.078,285.752,61.078z M519.335,306.008l85.174-85.175c9.206-9.205,10.043-23.248,1.919-31.392     c-8.144-8.144-22.187-7.287-31.392,1.918l-85.175,85.175l-85.175-85.175c-9.205-9.206-23.248-10.062-31.392-1.918     c-8.145,8.144-7.287,22.187,1.918,31.392l85.175,85.175l-85.175,85.175c-9.205,9.205-10.062,23.248-1.918,31.392     c8.144,8.145,22.187,7.287,31.392-1.918l85.175-85.175l85.175,85.175c9.205,9.185,23.248,10.042,31.392,1.918     c8.145-8.144,7.287-22.207-1.919-31.392L519.335,306.008z"/>
		</g>
	</g>
</g>
<g>
</g>
<g>
</g>
<g>
</g>
<g>
</g>
<g>
</g>
<g>
</g>
<g>
</g>
<g>
</g>
<g>
</g>
<g>
</g>
<g>
</g>
<g>
</g>
<g>
</g>
<g>
</g>
<g>
</g>
</svg>